<svg version="1.1" id="Layer_1" xmlns="http://www.w3.org/2000/svg" xmlns:xlink="http://www.w3.org/1999/xlink" x="0px" y="0px"
	 width="100%" viewBox="0 0 2000 1500" enable-background="new 0 0 2000 1500" xml:space="preserve">
<path fill="#FFFFFF" opacity="1.000000" stroke="none" 
	d="
M1441.000000,1501.000000 
	C960.666809,1501.000000 480.833618,1501.000000 1.000322,1501.000000 
	C1.000215,1001.000305 1.000215,501.000580 1.000107,1.000657 
	C667.666199,1.000438 1334.332397,1.000438 2000.998901,1.000219 
	C2000.999268,500.999359 2000.999268,1000.998718 2000.999634,1500.999023 
	C1814.500000,1501.000000 1628.000000,1501.000000 1441.000000,1501.000000 
M1229.538086,1243.847168 
	C1272.706665,1244.456055 1315.870850,1244.420654 1358.560913,1236.875732 
	C1372.083862,1234.485596 1386.100220,1232.234985 1398.515625,1226.787109 
	C1423.782471,1215.699707 1448.072388,1202.396362 1472.873535,1190.227417 
	C1476.652588,1188.373047 1478.753174,1185.862793 1480.104980,1182.020264 
	C1487.000122,1162.422729 1490.236816,1142.043335 1492.811401,1121.578979 
	C1497.744751,1082.366333 1499.291138,1042.919556 1499.751709,1003.438171 
	C1500.154053,968.941833 1499.673584,934.430359 1500.431152,899.944153 
	C1501.528809,849.978271 1503.754517,800.036987 1504.823975,750.070679 
	C1505.893677,700.091919 1506.516479,650.096130 1506.614746,600.106384 
	C1506.692383,560.627319 1505.822876,521.143433 1505.105713,481.666504 
	C1504.439819,445.007629 1501.443481,408.533569 1496.038330,372.242096 
	C1490.982788,338.297211 1478.746094,307.364349 1458.001221,280.022980 
	C1440.626709,257.123596 1417.695190,246.591248 1388.898560,252.065079 
	C1377.023560,254.322357 1365.479248,258.309998 1353.770996,261.460052 
	C1350.264648,262.403442 1346.752686,263.640472 1343.174561,263.952118 
	C1317.981323,266.145905 1292.586792,266.867004 1267.608154,270.485657 
	C1230.922607,275.800262 1194.501221,282.981049 1158.021362,289.661682 
	C1125.928833,295.538818 1093.996826,301.391296 1060.995972,299.948761 
	C1009.406677,297.693665 957.765259,296.475433 906.134094,295.378937 
	C853.639465,294.264160 801.207031,295.327911 748.988220,301.817749 
	C714.077820,306.156494 679.562927,312.470886 646.009888,323.017456 
	C620.764099,330.952850 594.901428,337.540833 572.598450,353.085205 
	C566.897095,357.058807 559.491577,358.656708 552.777283,361.093292 
	C538.115662,366.413879 523.893311,372.449615 513.330322,384.582764 
	C499.666840,400.277222 495.317230,419.285095 495.106506,439.321503 
	C494.749207,473.301025 501.333771,506.505249 507.531250,539.716248 
	C513.542053,571.926758 520.912964,603.943604 521.065613,636.972473 
	C521.071655,638.283997 521.671204,639.592834 522.371521,642.433167 
	C524.401306,639.632874 525.607666,637.968506 527.542786,635.298767 
	C528.282410,638.695557 528.738525,640.568481 529.094177,642.460388 
	C530.938477,652.269470 533.421997,661.364624 543.115723,667.097656 
	C547.946472,669.954590 550.076904,675.109863 549.264343,681.724548 
	C547.319458,697.557190 545.642273,713.489746 545.167114,729.420959 
	C544.380005,755.811157 548.557129,781.872131 552.330078,807.905212 
	C554.001648,819.439270 554.410095,819.799438 543.846802,825.016113 
	C532.367004,830.685181 525.569031,839.705811 522.406189,851.744507 
	C521.185303,856.391541 520.371399,861.167175 519.695801,865.930115 
	C518.902466,871.523987 518.640808,877.195618 517.778198,882.776184 
	C517.437805,884.978516 516.607849,887.202332 513.091858,886.359863 
	C506.157684,884.698242 501.770325,888.545166 502.530273,895.722839 
	C503.755585,907.295410 502.503418,918.623657 500.340759,929.970276 
	C498.161041,941.406555 495.821411,952.867249 497.986603,964.635193 
	C498.792786,969.016846 500.424347,973.634033 499.747803,977.832520 
	C497.137451,994.032959 498.983734,1010.011414 500.492035,1026.105713 
	C501.871857,1040.829468 502.347473,1055.636108 503.414185,1070.392334 
	C503.746948,1074.995361 503.589172,1080.149902 505.640778,1083.992188 
	C508.745850,1089.807617 508.850616,1095.360107 507.741364,1101.345337 
	C507.074554,1104.943237 506.474396,1108.571411 505.500397,1112.090942 
	C502.437073,1123.160278 503.238190,1133.384888 511.136169,1142.447388 
	C513.419983,1145.067871 515.130798,1148.183105 517.150452,1151.038940 
	C542.784180,1187.284546 577.228455,1206.653076 622.193115,1206.256348 
	C638.512756,1206.112305 654.843750,1206.405029 671.159363,1206.862793 
	C695.178833,1207.536621 717.473999,1213.790161 737.040161,1228.298584 
	C737.539001,1228.668457 738.157410,1228.877075 738.841492,1229.222290 
	C741.941040,1224.134399 744.943726,1219.205566 747.946411,1214.276733 
	C748.583252,1214.501709 749.220093,1214.726685 749.856934,1214.951782 
	C749.856934,1222.001953 749.856934,1229.052246 749.856934,1237.869751 
	C754.589600,1231.929443 756.165894,1235.280029 757.685547,1238.282959 
	C759.411743,1241.694214 760.741821,1245.321411 762.646118,1248.622681 
	C764.626343,1252.055908 766.684448,1251.945435 768.215820,1248.297852 
	C769.284424,1245.752686 769.858887,1242.910767 770.150940,1240.148315 
	C770.706238,1234.895996 770.901123,1229.605469 771.223816,1224.665283 
	C773.317139,1224.057129 776.049561,1223.697510 776.077759,1223.188232 
	C776.373291,1217.842163 777.631775,1211.942627 775.850891,1207.248291 
	C773.817505,1201.888184 773.139709,1197.943970 778.947754,1193.059814 
	C780.050476,1199.139404 781.172791,1204.539551 781.988281,1209.985596 
	C783.736633,1221.661133 785.232849,1233.375122 787.067566,1245.036377 
	C787.397400,1247.132568 788.854797,1249.051270 789.791565,1251.052002 
	C790.294922,1250.854126 790.798279,1250.656128 791.301636,1250.458252 
	C790.975220,1245.992065 790.417664,1241.526733 790.399475,1237.059204 
	C790.386230,1233.794189 789.885498,1229.054199 791.713318,1227.567749 
	C795.448486,1224.530518 795.634033,1220.490601 797.230469,1216.835571 
	C798.110657,1214.820435 798.983459,1212.802002 799.859558,1210.785034 
	C800.505798,1210.815674 801.152100,1210.846313 801.798340,1210.876953 
	C803.754578,1223.493530 805.710815,1236.110107 807.869568,1250.032593 
	C809.396545,1247.236084 810.156921,1245.774048 810.979431,1244.347900 
	C816.763733,1234.319092 822.662292,1232.926636 832.174255,1239.411987 
	C835.750610,1241.850342 839.108215,1244.627197 842.779907,1246.904175 
	C850.632324,1251.773193 854.975342,1250.863525 860.692078,1243.524292 
	C863.980164,1239.303101 867.355530,1238.567749 871.983704,1241.460815 
	C874.796570,1243.219360 877.294373,1245.474121 880.001770,1247.410767 
	C886.296875,1251.914062 889.126160,1251.328369 893.370850,1245.080322 
	C894.425659,1243.527710 896.103149,1242.398193 897.494385,1241.074219 
	C898.647705,1242.785156 900.494568,1244.377075 900.813110,1246.231445 
	C901.522766,1250.362549 903.855896,1251.149902 907.461914,1250.952271 
	C928.734253,1249.786499 950.031128,1248.992065 971.280701,1247.511475 
	C989.934631,1246.211792 1008.506226,1245.195801 1027.026855,1248.807129 
	C1031.386108,1249.656982 1036.063599,1251.278198 1040.199219,1250.484375 
	C1069.092407,1244.938232 1098.287109,1242.466553 1127.603638,1242.359619 
	C1161.251343,1242.236816 1194.903442,1243.293335 1229.538086,1243.847168 
z"/>
<path fill="#E83D95" opacity="1.000000" stroke="none" 
	d="
M1229.045898,1243.842407 
	C1194.903442,1243.293335 1161.251343,1242.236816 1127.603638,1242.359619 
	C1098.287109,1242.466553 1069.092407,1244.938232 1040.199219,1250.484375 
	C1036.063599,1251.278198 1031.386108,1249.656982 1027.026855,1248.807129 
	C1008.506226,1245.195801 989.934631,1246.211792 971.280701,1247.511475 
	C950.031128,1248.992065 928.734253,1249.786499 907.461914,1250.952271 
	C903.855896,1251.149902 901.522766,1250.362549 900.813110,1246.231445 
	C900.494568,1244.377075 898.647705,1242.785156 897.494385,1241.074219 
	C896.103149,1242.398193 894.425659,1243.527710 893.370850,1245.080322 
	C889.126160,1251.328369 886.296875,1251.914062 880.001770,1247.410767 
	C877.294373,1245.474121 874.796570,1243.219360 871.983704,1241.460815 
	C867.355530,1238.567749 863.980164,1239.303101 860.692078,1243.524292 
	C854.975342,1250.863525 850.632324,1251.773193 842.779907,1246.904175 
	C839.108215,1244.627197 835.750610,1241.850342 832.174255,1239.411987 
	C822.662292,1232.926636 816.763733,1234.319092 810.979431,1244.347900 
	C810.156921,1245.774048 809.396545,1247.236084 807.869568,1250.032593 
	C805.710815,1236.110107 803.754578,1223.493530 801.798340,1210.876953 
	C801.152100,1210.846313 800.505798,1210.815674 799.859558,1210.785034 
	C798.983459,1212.802002 798.110657,1214.820435 797.230469,1216.835571 
	C795.634033,1220.490601 795.448486,1224.530518 791.713318,1227.567749 
	C789.885498,1229.054199 790.386230,1233.794189 790.399475,1237.059204 
	C790.417664,1241.526733 790.975220,1245.992065 791.301636,1250.458252 
	C790.798279,1250.656128 790.294922,1250.854126 789.791565,1251.052002 
	C788.854797,1249.051270 787.397400,1247.132568 787.067566,1245.036377 
	C785.232849,1233.375122 783.736633,1221.661133 781.988281,1209.985596 
	C781.172791,1204.539551 780.050476,1199.139404 778.947754,1193.059814 
	C773.139709,1197.943970 773.817505,1201.888184 775.850891,1207.248291 
	C777.631775,1211.942627 776.373291,1217.842163 776.077759,1223.188232 
	C776.049561,1223.697510 773.317139,1224.057129 771.223816,1224.665283 
	C770.901123,1229.605469 770.706238,1234.895996 770.150940,1240.148315 
	C769.858887,1242.910767 769.284424,1245.752686 768.215820,1248.297852 
	C766.684448,1251.945435 764.626343,1252.055908 762.646118,1248.622681 
	C760.741821,1245.321411 759.411743,1241.694214 757.685547,1238.282959 
	C756.165894,1235.280029 754.589600,1231.929443 749.856934,1237.869751 
	C749.856934,1229.052246 749.856934,1222.001953 749.856934,1214.951782 
	C749.220093,1214.726685 748.583252,1214.501709 747.946411,1214.276733 
	C744.943726,1219.205566 741.941040,1224.134399 738.841492,1229.222290 
	C738.157410,1228.877075 737.539001,1228.668457 737.040161,1228.298584 
	C717.473999,1213.790161 695.178833,1207.536621 671.159363,1206.862793 
	C654.843750,1206.405029 638.512756,1206.112305 622.193115,1206.256348 
	C577.228455,1206.653076 542.784180,1187.284546 517.150452,1151.038940 
	C515.130798,1148.183105 513.419983,1145.067871 511.136169,1142.447388 
	C503.238190,1133.384888 502.437073,1123.160278 505.500397,1112.090942 
	C506.474396,1108.571411 507.074554,1104.943237 507.741364,1101.345337 
	C508.850616,1095.360107 508.745850,1089.807617 505.640778,1083.992188 
	C503.589172,1080.149902 503.746948,1074.995361 503.414185,1070.392334 
	C502.347473,1055.636108 501.871857,1040.829468 500.492035,1026.105713 
	C498.983734,1010.011414 497.137451,994.032959 499.747803,977.832520 
	C500.424347,973.634033 498.792786,969.016846 497.986603,964.635193 
	C495.821411,952.867249 498.161041,941.406555 500.340759,929.970276 
	C502.503418,918.623657 503.755585,907.295410 502.530273,895.722839 
	C501.770325,888.545166 506.157684,884.698242 513.091858,886.359863 
	C516.607849,887.202332 517.437805,884.978516 517.778198,882.776184 
	C518.640808,877.195618 518.902466,871.523987 519.695801,865.930115 
	C520.371399,861.167175 521.185303,856.391541 522.406189,851.744507 
	C525.569031,839.705811 532.367004,830.685181 543.846802,825.016113 
	C554.410095,819.799438 554.001648,819.439270 552.330078,807.905212 
	C548.557129,781.872131 544.380005,755.811157 545.167114,729.420959 
	C545.642273,713.489746 547.319458,697.557190 549.264343,681.724548 
	C550.076904,675.109863 547.946472,669.954590 543.115723,667.097656 
	C533.421997,661.364624 530.938477,652.269470 529.094177,642.460388 
	C528.738525,640.568481 528.282410,638.695557 527.542786,635.298767 
	C525.607666,637.968506 524.401306,639.632874 522.371521,642.433167 
	C521.671204,639.592834 521.071655,638.283997 521.065613,636.972473 
	C520.912964,603.943604 513.542053,571.926758 507.531250,539.716248 
	C501.333771,506.505249 494.749207,473.301025 495.106506,439.321503 
	C495.317230,419.285095 499.666840,400.277222 513.330322,384.582764 
	C523.893311,372.449615 538.115662,366.413879 552.777283,361.093292 
	C559.491577,358.656708 566.897095,357.058807 572.598450,353.085205 
	C594.901428,337.540833 620.764099,330.952850 646.009888,323.017456 
	C679.562927,312.470886 714.077820,306.156494 748.988220,301.817749 
	C801.207031,295.327911 853.639465,294.264160 906.134094,295.378937 
	C957.765259,296.475433 1009.406677,297.693665 1060.995972,299.948761 
	C1093.996826,301.391296 1125.928833,295.538818 1158.021362,289.661682 
	C1194.501221,282.981049 1230.922607,275.800262 1267.608154,270.485657 
	C1292.586792,266.867004 1317.981323,266.145905 1343.174561,263.952118 
	C1346.752686,263.640472 1350.264648,262.403442 1353.770996,261.460052 
	C1365.479248,258.309998 1377.023560,254.322357 1388.898560,252.065079 
	C1417.695190,246.591248 1440.626709,257.123596 1458.001221,280.022980 
	C1478.746094,307.364349 1490.982788,338.297211 1496.038330,372.242096 
	C1501.443481,408.533569 1504.439819,445.007629 1505.105713,481.666504 
	C1505.822876,521.143433 1506.692383,560.627319 1506.614746,600.106384 
	C1506.516479,650.096130 1505.893677,700.091919 1504.823975,750.070679 
	C1503.754517,800.036987 1501.528809,849.978271 1500.431152,899.944153 
	C1499.673584,934.430359 1500.154053,968.941833 1499.751709,1003.438171 
	C1499.291138,1042.919556 1497.744751,1082.366333 1492.811401,1121.578979 
	C1490.236816,1142.043335 1487.000122,1162.422729 1480.104980,1182.020264 
	C1478.753174,1185.862793 1476.652588,1188.373047 1472.873535,1190.227417 
	C1448.072388,1202.396362 1423.782471,1215.699707 1398.515625,1226.787109 
	C1386.100220,1232.234985 1372.083862,1234.485596 1358.560913,1236.875732 
	C1315.870850,1244.420654 1272.706665,1244.456055 1229.045898,1243.842407 
M720.780518,574.500000 
	C720.780518,764.558044 720.780518,954.616089 720.780518,1144.775269 
	C746.911316,1144.775269 772.322571,1144.775269 798.236694,1144.775269 
	C798.236694,1142.364624 798.236633,1140.241699 798.236633,1138.118896 
	C798.236633,1045.633789 798.236389,953.148621 798.237427,860.663452 
	C798.237488,854.160217 798.242126,854.155884 804.665649,854.155823 
	C886.819153,854.154724 968.972656,854.088684 1051.126099,854.198181 
	C1073.907349,854.228577 1096.322266,851.904724 1118.178711,845.314087 
	C1167.123779,830.555176 1204.497070,800.047485 1233.480835,758.888977 
	C1260.894165,719.960632 1276.108521,676.368896 1280.195801,628.891235 
	C1282.630493,600.609863 1280.971436,572.674500 1273.600708,545.193787 
	C1262.948120,505.476959 1244.170532,469.876923 1217.616089,438.634705 
	C1172.969604,386.106689 1116.836182,356.941895 1046.912842,356.933899 
	C940.263306,356.921722 833.613708,356.930725 726.964172,356.930725 
	C725.028931,356.930725 723.093689,356.930695 720.780273,356.930695 
	C720.780273,429.578735 720.780273,501.539368 720.780518,574.500000 
z"/>
<path fill="#FFFFFF" opacity="1.000000" stroke="none" 
	d="
M720.780396,574.000000 
	C720.780273,501.539368 720.780273,429.578735 720.780273,356.930695 
	C723.093689,356.930695 725.028931,356.930725 726.964172,356.930725 
	C833.613708,356.930725 940.263306,356.921722 1046.912842,356.933899 
	C1116.836182,356.941895 1172.969604,386.106689 1217.616089,438.634705 
	C1244.170532,469.876923 1262.948120,505.476959 1273.600708,545.193787 
	C1280.971436,572.674500 1282.630493,600.609863 1280.195801,628.891235 
	C1276.108521,676.368896 1260.894165,719.960632 1233.480835,758.888977 
	C1204.497070,800.047485 1167.123779,830.555176 1118.178711,845.314087 
	C1096.322266,851.904724 1073.907349,854.228577 1051.126099,854.198181 
	C968.972656,854.088684 886.819153,854.154724 804.665649,854.155823 
	C798.242126,854.155884 798.237488,854.160217 798.237427,860.663452 
	C798.236389,953.148621 798.236633,1045.633789 798.236633,1138.118896 
	C798.236633,1140.241699 798.236694,1142.364624 798.236694,1144.775269 
	C772.322571,1144.775269 746.911316,1144.775269 720.780518,1144.775269 
	C720.780518,954.616089 720.780518,764.558044 720.780396,574.000000 
M1156.489624,736.967957 
	C1196.068481,690.001160 1208.987305,635.406433 1201.438965,575.518616 
	C1196.750732,538.323364 1180.745850,505.760956 1155.813110,477.893219 
	C1126.332764,444.942627 1089.933838,425.927063 1044.942505,425.858734 
	C964.111145,425.735962 883.279480,425.804047 802.447998,425.812012 
	C801.181519,425.812164 799.915039,426.063110 798.566162,426.205688 
	C798.566162,545.956970 798.566162,665.365662 798.566162,785.051636 
	C800.353149,785.131104 801.824402,785.253723 803.295654,785.253906 
	C885.960510,785.262573 968.625977,785.402771 1051.289673,785.093506 
	C1062.515381,785.051514 1073.929443,783.672974 1084.915649,781.321228 
	C1113.659912,775.168335 1136.523315,758.942200 1156.489624,736.967957 
z"/>
<path fill="#E83D95" opacity="1.000000" stroke="none" 
	d="
M1156.250122,737.231323 
	C1136.523315,758.942200 1113.659912,775.168335 1084.915649,781.321228 
	C1073.929443,783.672974 1062.515381,785.051514 1051.289673,785.093506 
	C968.625977,785.402771 885.960510,785.262573 803.295654,785.253906 
	C801.824402,785.253723 800.353149,785.131104 798.566162,785.051636 
	C798.566162,665.365662 798.566162,545.956970 798.566162,426.205688 
	C799.915039,426.063110 801.181519,425.812164 802.447998,425.812012 
	C883.279480,425.804047 964.111145,425.735962 1044.942505,425.858734 
	C1089.933838,425.927063 1126.332764,444.942627 1155.813110,477.893219 
	C1180.745850,505.760956 1196.750732,538.323364 1201.438965,575.518616 
	C1208.987305,635.406433 1196.068481,690.001160 1156.250122,737.231323 
z"/>
</svg>